<?xml version="1.0" encoding="UTF-8"?>
<!DOCTYPE svg PUBLIC "-//W3C//DTD SVG 1.1//EN" "http://www.w3.org/Graphics/SVG/1.1/DTD/svg11.dtd">
<!-- Creator: CorelDRAW 2019 (64-Bit) -->
<svg xmlns="http://www.w3.org/2000/svg" xml:space="preserve" width="104.954mm" height="28.6801mm" version="1.1" style="shape-rendering:geometricPrecision; text-rendering:geometricPrecision; image-rendering:optimizeQuality; fill-rule:evenodd; clip-rule:evenodd"
viewBox="0 0 83522.8 22823.76"
 xmlns:xlink="http://www.w3.org/1999/xlink">
 <defs>
  <style type="text/css">
   <![CDATA[
    .fil0 {fill:#FEFEFE}
    .fil1 {fill:#68C2C5}
   ]]>
  </style>
 </defs>
 <g id="Layer_x0020_1">
  <metadata id="CorelCorpID_0Corel-Layer"/>
  <path class="fil0" d="M42953.56 15805.24c0,-3787 6176.32,-4514.6 6176.32,280.76 0,3590.03 -6176.32,3916.95 -6176.32,-280.76zm6176.32 -5614.8c-1123.52,-300.02 -489.42,-367.74 -1644.45,-882.23 -3442.97,-1533.6 -9160.27,-69.87 -9391.29,6332.06 -151.36,4195.24 2336.48,7183.49 7105.34,7183.49 1833.85,0 2816.27,-938.41 3930.4,-1684.48l0 1403.72 4491.84 0 0 -22459.2 -4491.84 0 0 10106.64z"/>
  <path class="fil0" d="M1684.48 7102.32c0,6048.99 8983.76,6337.47 8983.76,8983.68 0,2713.14 -3277.2,2625.52 -5858.16,1366.24 -1207.87,-589.29 -1592.96,-996.67 -2564.16,-1647 -672.61,1416.13 -1868.79,2798.84 -2245.92,4211.08 2817.79,1956.72 5779.05,2807.44 8514.08,2807.44 3858.78,-169.75 7488.2,-1892.26 7488.2,-5895.56 0,-2779.51 -481.22,-4321.94 -4019.21,-6368.19 -2690.54,-1323.58 -5245.23,-1820.4 -5245.23,-4019.21 0,-2438.27 4599.83,-1131.24 6737.76,0l1965.24 -3930.32c-6148.39,-4117.17 -13756.36,-1367.75 -13756.36,4491.84z"/>
  <path class="fil0" d="M63447.75 11594.16c1447.33,0 2212.97,766.92 2245.92,2245.92l-4772.6 0c121.52,-1460.54 1039.48,-2245.92 2526.68,-2245.92zm-7580.04 4211.08c0,8794.36 12940.18,8528.24 14317.8,3368.88 0,0 -3368.88,-1403.72 -3368.88,-1403.72 -1080.86,723.78 -3150.59,2200.48 -5123.23,631.39 -1152.64,-917.4 -1053.09,-2035.03 -1053.09,-2035.03l9825.96 0c0,-11277.67 -14598.56,-9497.77 -14598.56,-561.52z"/>
  <path class="fil0" d="M26109 12717.12c0,2820.49 2560.34,3884.96 4392.44,4591.32 1213.76,467.93 2207.08,1100.12 1222.44,1865.68 -984.65,765.56 -2822.24,-589.85 -4772.6,-1122.96 -575.76,1088.02 -1108.79,2000.18 -1684.48,3088.12 2545.46,1241.85 3957.22,1684.48 6466.55,1684.48 2814.44,-238.1 5043.89,-1724.51 5043.89,-3930.4 -163.22,-5238.7 -6965.44,-4202.8 -6486.92,-5952.46 478.52,-1749.66 2893.23,-997.94 4802.44,-223.78 447.56,-845.86 1057.23,-1697.77 1284.75,-2674.54 -1726.42,-913.5 -4024.46,-1704.93 -6308.74,-1228.17 -2137.05,445.97 -3959.76,2071.56 -3959.76,3902.71z"/>
  <path class="fil0" d="M72854.56 12717.12c0,2820.49 2560.34,3884.96 4392.44,4591.32 1213.76,467.93 2207.08,1100.12 1222.44,1865.68 -984.65,765.56 -2822.24,-589.85 -4772.6,-1122.96 -575.76,1088.02 -1108.79,2000.18 -1684.48,3088.12 2545.46,1241.85 3957.22,1684.48 6466.55,1684.48 2814.44,-238.1 5043.89,-1724.51 5043.89,-3930.4 -163.22,-5238.7 -6965.44,-4202.8 -6486.92,-5952.46 478.52,-1749.66 2893.23,-997.94 4802.44,-223.78 447.56,-845.86 1057.23,-1697.77 1284.75,-2674.54 -1726.42,-913.5 -4024.46,-1704.93 -6308.74,-1228.17 -2137.05,445.97 -3959.76,2071.56 -3959.76,3902.71z"/>
  <path class="fil1" d="M56148.39 5698.6l15907.98 0c0,0 -401.09,-3526.69 -3505.44,-5103.18 -1805.28,-901.17 -9638.31,-511.62 -12402.54,-511.62l0 5614.8z"/>
  <polygon class="fil0" points="18626.13,22543 22800.84,22543 22768.61,9436.25 18536.76,9425.11 "/>
  <path class="fil0" d="M17967.52 3452.68c0,3034.4 3160.38,3721.02 4704.08,2177.32 1543.62,-1543.62 857,-4704 -2177.4,-4704 -1387.64,0 -2526.68,1139.04 -2526.68,2526.68z"/>
 </g>
</svg>
